<svg width="24" height="24" viewBox="0 0 24 24" fill="none" xmlns="http://www.w3.org/2000/svg">
<path fill-rule="evenodd" clip-rule="evenodd" d="M1.25 12C1.25 6.063 6.063 1.25 12 1.25C17.937 1.25 22.75 6.063 22.75 12C22.75 17.937 17.937 22.75 12 22.75C6.063 22.75 1.25 17.937 1.25 12ZM12 2.75C9.54675 2.75 7.19397 3.72455 5.45926 5.45926C3.72455 7.19397 2.75 9.54675 2.75 12C2.75 14.4533 3.72455 16.806 5.45926 18.5407C7.19397 20.2754 9.54675 21.25 12 21.25C14.4533 21.25 16.806 20.2754 18.5407 18.5407C20.2754 16.806 21.25 14.4533 21.25 12C21.25 9.54675 20.2754 7.19397 18.5407 5.45926C16.806 3.72455 14.4533 2.75 12 2.75Z" fill="#F8F8F8"/>
<path fill-rule="evenodd" clip-rule="evenodd" d="M12.286 8.75001C10.283 8.75001 8.75 10.253 8.75 12C8.75 13.747 10.283 15.25 12.286 15.25C12.797 15.25 13.281 15.15 13.716 14.973C13.8072 14.9358 13.9048 14.9169 14.0034 14.9174C14.1019 14.9179 14.1993 14.9378 14.2901 14.976C14.3809 15.0141 14.4633 15.0698 14.5326 15.1398C14.6019 15.2098 14.6568 15.2928 14.694 15.384C14.7312 15.4752 14.7501 15.5729 14.7496 15.6714C14.7491 15.7699 14.7292 15.8673 14.6911 15.9581C14.6529 16.0489 14.5972 16.1314 14.5272 16.2007C14.4572 16.2699 14.3742 16.3248 14.283 16.362C13.6487 16.6193 12.9705 16.7511 12.286 16.75C9.554 16.75 7.25 14.671 7.25 12C7.25 9.32901 9.554 7.25001 12.286 7.25001C12.9705 7.24892 13.6487 7.38069 14.283 7.63801C14.4673 7.71306 14.6143 7.85827 14.6916 8.04168C14.7688 8.22509 14.7701 8.43168 14.695 8.61601C14.6199 8.80033 14.4747 8.94729 14.2913 9.02456C14.1079 9.10182 13.9013 9.10306 13.717 9.02801C13.2625 8.84347 12.7765 8.74905 12.286 8.75001Z" fill="#F8F8F8"/>
</svg>
