<svg width="33" height="33" viewBox="0 0 33 33" fill="none" xmlns="http://www.w3.org/2000/svg">
<g clip-path="url(#clip0_14_131)">
<path d="M16.5 0C7.38788 0 0 7.38788 0 16.5C0 25.6121 7.38788 33 16.5 33C25.6121 33 33 25.6121 33 16.5C33 7.38788 25.6121 0 16.5 0ZM24.6042 11.3039L21.8955 24.0639C21.6961 24.9686 21.1571 25.1886 20.405 24.7624L16.28 21.7236L14.2917 23.6404C14.1943 23.7665 14.0693 23.8686 13.9263 23.9389C13.7833 24.0092 13.6261 24.0459 13.4667 24.046H13.4599L13.7527 19.8468L21.3978 12.9415C21.7278 12.6486 21.3235 12.4823 20.8849 12.7751L11.44 18.7234L7.37 17.4529C6.49 17.1737 6.46525 16.5729 7.55562 16.1411L23.4589 10.0114C24.1986 9.74188 24.8421 10.1874 24.6029 11.3053L24.6042 11.3039Z" fill="white"/>
</g>
<defs>
<clipPath id="clip0_14_131">
<rect width="33" height="33" fill="white"/>
</clipPath>
</defs>
</svg>
