<svg width="33" height="33" viewBox="0 0 33 33" fill="none" xmlns="http://www.w3.org/2000/svg">
<rect x="1.5" y="1.5" width="30" height="30" rx="8.5" stroke="white" stroke-width="3"/>
<path d="M13.0833 16.5C12.0697 16.5 11.0788 16.8006 10.236 17.3637C9.39322 17.9269 8.73633 18.7273 8.34843 19.6637C7.96053 20.6002 7.85904 21.6307 8.05679 22.6248C8.25454 23.619 8.74265 24.5322 9.45939 25.2489C10.1761 25.9657 11.0893 26.4538 12.0835 26.6515C13.0776 26.8493 14.1081 26.7478 15.0446 26.3599C15.981 25.972 16.7815 25.3151 17.3446 24.4723C17.9077 23.6295 18.2083 22.6386 18.2083 21.625V6.25C18.7772 7.95833 20.9416 11.375 25.0416 11.375" stroke="#F8F8F8" stroke-width="3" stroke-linecap="round" stroke-linejoin="round"/>
</svg>
