<svg width="33" height="34" viewBox="0 0 33 34" fill="none" xmlns="http://www.w3.org/2000/svg">
<path d="M13.0474 0.00416759L14.0498 0H18.9502L19.954 0.00416759L21.2107 0.0180596L21.8061 0.027784L22.3809 0.0430651L22.935 0.0625139L23.4685 0.0847411L23.9827 0.113914L24.4778 0.148644L24.9521 0.19032L25.41 0.236164C27.8025 0.508446 29.4429 1.09191 30.6804 2.34219C31.9179 3.59247 32.4954 5.24839 32.7649 7.66698L32.8116 8.12959L32.8515 8.61025L32.8859 9.11036L32.9134 9.62853L32.9478 10.4454L32.9643 11.0149L32.9821 11.9096L32.9945 13.1807L33 14.5421L32.9986 19.1445L32.9945 20.1586L32.9808 21.4284L32.9711 22.0299L32.956 22.6106L32.9368 23.1704L32.9147 23.7094L32.8859 24.229L32.8515 24.7291L32.8102 25.2084L32.7649 25.671C32.4954 28.0882 31.9179 29.7455 30.6804 30.9958C29.4429 32.2461 27.8039 32.8295 25.41 33.1018L24.9521 33.149L24.4764 33.1893L23.9814 33.2241L23.4685 33.2518L22.66 33.2866L22.0962 33.3032L21.2107 33.3213L19.9526 33.3338L18.6051 33.3394L14.0498 33.338L13.046 33.3338L11.7893 33.3199L11.1939 33.3102L10.6191 33.2949L10.065 33.2755L9.5315 33.2532L9.01725 33.2241L8.52225 33.1893L8.04788 33.1476L7.59 33.1018C5.1975 32.8295 3.55713 32.2461 2.31963 30.9958C1.08213 29.7455 0.504625 28.0896 0.235125 25.671L0.188375 25.2084L0.1485 24.7277L0.114125 24.2276L0.086625 23.7094L0.05225 22.8926L0.03575 22.323L0.017875 21.4284L0.0055 20.1573L0 18.7958L0.001375 14.1934L0.0055 13.1793L0.01925 11.9096L0.028875 11.3081L0.044 10.7274L0.06325 10.1675L0.08525 9.62853L0.114125 9.10897L0.1485 8.60886L0.18975 8.12959L0.235125 7.66698C0.504625 5.24978 1.08213 3.59247 2.31963 2.34219C3.55713 1.09191 5.19613 0.508446 7.59 0.236164L8.04788 0.188931L8.52362 0.148644L9.01863 0.113914L9.5315 0.0861303L10.34 0.0514003L10.9037 0.0347299L11.7893 0.0166704L13.0474 0.00416759ZM9.33625 10.1398H5.56875C5.7475 18.8083 10.0375 24.0178 17.5588 24.0178H17.985V19.0584C20.7488 19.3362 22.8387 21.3784 23.6775 24.0178H27.5825C26.51 20.0725 23.6912 17.8915 21.9312 17.058C23.6912 16.03 26.1662 13.5294 26.7575 10.1398H23.21C22.44 12.8904 20.1575 15.3909 17.985 15.6271V10.1398H14.4375V19.753C12.2375 19.1973 9.46 16.5023 9.33625 10.1398Z" fill="#F8F8F8"/>
</svg>
