<?xml version="1.0" encoding="UTF-8" standalone="no"?>
<svg
   width="33"
   height="34"
   viewBox="0 0 33 34"
   fill="none"
   version="1.1"
   id="svg316"
   sodipodi:docname="instagram.svg"
   inkscape:version="1.2.2 (732a01da63, 2022-12-09)"
   xmlns:inkscape="http://www.inkscape.org/namespaces/inkscape"
   xmlns:sodipodi="http://sodipodi.sourceforge.net/DTD/sodipodi-0.dtd"
   xmlns="http://www.w3.org/2000/svg"
   xmlns:svg="http://www.w3.org/2000/svg">
  <defs
     id="defs320" />
  <sodipodi:namedview
     id="namedview318"
     pagecolor="#ffffff"
     bordercolor="#000000"
     borderopacity="0.25"
     inkscape:showpageshadow="2"
     inkscape:pageopacity="0.0"
     inkscape:pagecheckerboard="0"
     inkscape:deskcolor="#d1d1d1"
     showgrid="false"
     inkscape:zoom="23.647059"
     inkscape:cx="14.949005"
     inkscape:cy="17.021144"
     inkscape:window-width="1920"
     inkscape:window-height="991"
     inkscape:window-x="-9"
     inkscape:window-y="-9"
     inkscape:window-maximized="1"
     inkscape:current-layer="svg316" />
  <path
     d="M9.57 0H23.43C28.71 0 33 4.33412 33 9.66841V23.6709C33 26.2352 31.9917 28.6944 30.197 30.5075C28.4023 32.3207 25.9681 33.3394 23.43 33.3394H9.57C4.29 33.3394 0 29.0052 0 23.6709V9.66841C0 7.10419 1.00827 4.64499 2.80299 2.83181C4.59771 1.01863 7.03188 0 9.57 0ZM9.24 3.33394C7.66461 3.33394 6.15375 3.96619 5.03979 5.09161C3.92582 6.21703 3.3 7.74343 3.3 9.33502V24.0043C3.3 27.3216 5.9565 30.0054 9.24 30.0054H23.76C25.3354 30.0054 26.8462 29.3732 27.9602 28.2477C29.0742 27.1223 29.7 25.5959 29.7 24.0043V9.33502C29.7 6.01775 27.0435 3.33394 23.76 3.33394H9.24ZM25.1625 5.83439C25.7095 5.83439 26.2341 6.05392 26.6209 6.44469C27.0077 6.83546 27.225 7.36546 27.225 7.9181C27.225 8.47073 27.0077 9.00073 26.6209 9.3915C26.2341 9.78227 25.7095 10.0018 25.1625 10.0018C24.6155 10.0018 24.0909 9.78227 23.7041 9.3915C23.3173 9.00073 23.1 8.47073 23.1 7.9181C23.1 7.36546 23.3173 6.83546 23.7041 6.44469C24.0909 6.05392 24.6155 5.83439 25.1625 5.83439ZM16.5 8.33484C18.688 8.33484 20.7865 9.21297 22.3336 10.7761C23.8808 12.3391 24.75 14.4591 24.75 16.6697C24.75 18.8802 23.8808 21.0002 22.3336 22.5633C20.7865 24.1264 18.688 25.0045 16.5 25.0045C14.312 25.0045 12.2135 24.1264 10.6664 22.5633C9.11919 21.0002 8.25 18.8802 8.25 16.6697C8.25 14.4591 9.11919 12.3391 10.6664 10.7761C12.2135 9.21297 14.312 8.33484 16.5 8.33484ZM16.5 11.6688C15.1872 11.6688 13.9281 12.1957 12.9998 13.1335C12.0715 14.0714 11.55 15.3434 11.55 16.6697C11.55 17.996 12.0715 19.268 12.9998 20.2059C13.9281 21.1437 15.1872 21.6706 16.5 21.6706C17.8128 21.6706 19.0719 21.1437 20.0002 20.2059C20.9285 19.268 21.45 17.996 21.45 16.6697C21.45 15.3434 20.9285 14.0714 20.0002 13.1335C19.0719 12.1957 17.8128 11.6688 16.5 11.6688Z"
     fill="#F8F8F8"
     id="path314"
     style="fill:#ffffff;fill-opacity:1" />
</svg>
