<svg width="62" height="62" viewBox="0 0 62 62" fill="none" xmlns="http://www.w3.org/2000/svg">
<path d="M31 5.16667C16.7322 5.16667 5.16663 16.7323 5.16663 31C5.16663 45.2678 16.7322 56.8333 31 56.8333C45.2677 56.8333 56.8333 45.2678 56.8333 31C56.8333 16.7323 45.2677 5.16667 31 5.16667Z" stroke="#F8F8F8" stroke-width="3" stroke-linecap="round" stroke-linejoin="round"/>
<path d="M11.0333 47.3938C11.0333 47.3938 16.7916 40.0417 30.9999 40.0417C45.2082 40.0417 50.9691 47.3938 50.9691 47.3938M30.9999 31C33.0553 31 35.0266 30.1835 36.48 28.7301C37.9334 27.2767 38.7499 25.3054 38.7499 23.25C38.7499 21.1946 37.9334 19.2233 36.48 17.7699C35.0266 16.3165 33.0553 15.5 30.9999 15.5C28.9445 15.5 26.9732 16.3165 25.5198 17.7699C24.0664 19.2233 23.2499 21.1946 23.2499 23.25C23.2499 25.3054 24.0664 27.2767 25.5198 28.7301C26.9732 30.1835 28.9445 31 30.9999 31Z" stroke="#F8F8F8" stroke-width="3" stroke-linecap="round" stroke-linejoin="round"/>
</svg>
