<svg width="77" height="77" viewBox="0 0 77 77" fill="none" xmlns="http://www.w3.org/2000/svg">
<path d="M69.9288 64.8214L55.6447 50.5312C59.9275 44.9502 61.927 37.9489 61.2377 30.9478C60.5483 23.9467 57.2217 17.4699 51.9326 12.8313C46.6435 8.19271 39.788 5.73967 32.7567 5.96978C25.7255 6.1999 19.0451 9.09594 14.0706 14.0704C9.09608 19.0449 6.20004 25.7254 5.96992 32.7566C5.7398 39.7878 8.19284 46.6433 12.8314 51.9324C17.47 57.2215 23.9468 60.5482 30.9479 61.2375C37.9491 61.9269 44.9503 59.9274 50.5314 55.6445L64.8275 69.9437C65.1633 70.2794 65.5618 70.5457 66.0005 70.7274C66.4392 70.9091 66.9093 71.0027 67.3842 71.0027C67.859 71.0027 68.3291 70.9091 68.7678 70.7274C69.2065 70.5457 69.6051 70.2794 69.9408 69.9437C70.2765 69.6079 70.5429 69.2093 70.7246 68.7707C70.9063 68.332 70.9998 67.8618 70.9998 67.387C70.9998 66.9122 70.9063 66.4421 70.7246 66.0034C70.5429 65.5647 70.2765 65.1661 69.9408 64.8304L69.9288 64.8214ZM13.2345 33.6875C13.2345 29.6423 14.4341 25.6879 16.6815 22.3244C18.9289 18.9609 22.1232 16.3393 25.8606 14.7913C29.5979 13.2432 33.7103 12.8382 37.6778 13.6274C41.6454 14.4166 45.2898 16.3645 48.1502 19.225C51.0106 22.0854 52.9586 25.7298 53.7478 29.6973C54.5369 33.6648 54.1319 37.7773 52.5839 41.5146C51.0358 45.2519 48.4143 48.4462 45.0508 50.6936C41.6873 52.9411 37.7329 54.1406 33.6876 54.1406C28.2648 54.1351 23.0657 51.9784 19.2312 48.1439C15.3968 44.3094 13.2401 39.1103 13.2345 33.6875Z" fill="black"/>
</svg>
