<svg width="46" height="46" viewBox="0 0 46 46" fill="none" xmlns="http://www.w3.org/2000/svg">
<g clip-path="url(#clip0_52_280)">
<path d="M38.3337 33.5417C39.072 33.542 39.7819 33.8264 40.3162 34.3359C40.8506 34.8455 41.1684 35.541 41.2039 36.2785C41.2394 37.016 40.9898 37.7388 40.5068 38.2973C40.0239 38.8558 39.3445 39.207 38.6097 39.2782L38.3337 39.2917H7.66699C6.92866 39.2913 6.21877 39.0069 5.68442 38.4974C5.15007 37.9879 4.83222 37.2923 4.79674 36.5548C4.76126 35.8173 5.01086 35.0945 5.49383 34.536C5.9768 33.9776 6.65611 33.6263 7.39099 33.5551L7.66699 33.5417H38.3337ZM38.3337 20.125C39.0962 20.125 39.8274 20.4279 40.3666 20.9671C40.9058 21.5062 41.2087 22.2375 41.2087 23C41.2087 23.7625 40.9058 24.4938 40.3666 25.0329C39.8274 25.5721 39.0962 25.875 38.3337 25.875H7.66699C6.90449 25.875 6.17323 25.5721 5.63406 25.0329C5.09489 24.4938 4.79199 23.7625 4.79199 23C4.79199 22.2375 5.09489 21.5062 5.63406 20.9671C6.17323 20.4279 6.90449 20.125 7.66699 20.125H38.3337ZM38.3337 6.70833C39.0962 6.70833 39.8274 7.01123 40.3666 7.5504C40.9058 8.08956 41.2087 8.82083 41.2087 9.58333C41.2087 10.3458 40.9058 11.0771 40.3666 11.6163C39.8274 12.1554 39.0962 12.4583 38.3337 12.4583H7.66699C6.90449 12.4583 6.17323 12.1554 5.63406 11.6163C5.09489 11.0771 4.79199 10.3458 4.79199 9.58333C4.79199 8.82083 5.09489 8.08956 5.63406 7.5504C6.17323 7.01123 6.90449 6.70833 7.66699 6.70833H38.3337Z" fill="white"/>
</g>
<defs>
<clipPath id="clip0_52_280">
<rect width="46" height="46" fill="white"/>
</clipPath>
</defs>
</svg>
