<?xml version="1.0" encoding="UTF-8" standalone="no"?>
<!-- Created with Inkscape (http://www.inkscape.org/) -->

<svg
   width="45.203419mm"
   height="25.401386mm"
   viewBox="0 0 45.203419 25.401386"
   version="1.1"
   id="svg5"
   xml:space="preserve"
   inkscape:version="1.2.2 (732a01da63, 2022-12-09)"
   sodipodi:docname="logotypes.svg"
   xmlns:inkscape="http://www.inkscape.org/namespaces/inkscape"
   xmlns:sodipodi="http://sodipodi.sourceforge.net/DTD/sodipodi-0.dtd"
   xmlns="http://www.w3.org/2000/svg"
   xmlns:svg="http://www.w3.org/2000/svg"><sodipodi:namedview
     id="namedview7"
     pagecolor="#ffffff"
     bordercolor="#000000"
     borderopacity="0.25"
     inkscape:showpageshadow="2"
     inkscape:pageopacity="0.0"
     inkscape:pagecheckerboard="0"
     inkscape:deskcolor="#d1d1d1"
     inkscape:document-units="mm"
     showgrid="false"
     inkscape:zoom="1.4142136"
     inkscape:cx="335.52217"
     inkscape:cy="174.30182"
     inkscape:window-width="1920"
     inkscape:window-height="991"
     inkscape:window-x="-9"
     inkscape:window-y="-9"
     inkscape:window-maximized="1"
     inkscape:current-layer="layer1" /><defs
     id="defs2"><rect
       x="159.16324"
       y="178.70959"
       width="223.38701"
       height="55.846752"
       id="rect236" /><rect
       x="159.16324"
       y="178.70959"
       width="322.97583"
       height="138.95686"
       id="rect1058" /><style
       type="text/css"
       id="style6161">
   <![CDATA[
    .fil0 {fill:none}
    .fil2 {fill:#D44545}
    .fil1 {fill:#D6D0D3}
    .fil4 {fill:#E8E2E4}
    .fil3 {fill:#E95353}
   ]]>
  </style></defs><g
     inkscape:label="Слой 1"
     inkscape:groupmode="layer"
     id="layer1"
     style="display:inline"
     transform="translate(-35.399617,-33.634837)"><text
       xml:space="preserve"
       transform="matrix(0.26458333,0,0,0.26458333,-13.657473,-3.928862)"
       id="text234"
       style="font-size:42.0703px;font-family:Delius;-inkscape-font-specification:'Delius, Normal';text-align:center;white-space:pre;shape-inside:url(#rect236);display:inline;fill:#e95353;fill-opacity:1;stroke:#000000;stroke-width:4.91339;stroke-linejoin:round"
       inkscape:export-filename=".\text234.png"
       inkscape:export-xdpi="96"
       inkscape:export-ydpi="96"><tspan
         x="183.89809"
         y="216.9943"
         id="tspan14200"><tspan
           style="stroke:none"
           id="tspan14198">smachna</tspan></tspan></text><text
       xml:space="preserve"
       transform="matrix(0.10077591,0,0,0.10077591,25.565072,36.224677)"
       id="text1056"
       style="font-style:normal;font-variant:normal;font-weight:normal;font-stretch:normal;font-size:43.2314px;font-family:'Century Gothic';-inkscape-font-specification:'Century Gothic, Normal';font-variant-ligatures:normal;font-variant-caps:normal;font-variant-numeric:normal;font-variant-east-asian:normal;text-align:center;white-space:pre;shape-inside:url(#rect1058);display:inline;fill:#c03f3f;fill-opacity:1;fill-rule:nonzero;stroke:#000000;stroke-width:2.92729;stroke-linejoin:round;stroke-dasharray:none"><tspan
         x="187.12587"
         y="217.95767"
         id="tspan14204"><tspan
           style="stroke:none"
           id="tspan14202">recipe  book</tspan></tspan></text><g
       style="clip-rule:evenodd;fill-rule:evenodd;image-rendering:optimizeQuality;shape-rendering:geometricPrecision;text-rendering:geometricPrecision"
       id="g6237"
       transform="matrix(7.2519845e-4,-2.6635975e-4,2.6635975e-4,7.2519845e-4,45.98845,33.428914)"><g
         id="Слой_x0020_1"
         inkscape:label="Слой 1"
         inkscape:groupmode="layer">
  <metadata
   id="CorelCorpID_0Corel-Layer" />
  <path
   class="fil0"
   d="m 5411.56,14741.04 c 0,1825.99 0,3651.98 0,5477.96 0,275.39 224.61,500 500,500 3101.84,0 6203.69,0 9305.53,0 275.39,0 500,-224.61 500,-500 0,-1815.98 0,-3631.96 0,-5447.94 0,-232.69 153.61,-429.13 379.44,-485.24 801.59,-199.14 1689.35,-571.14 2146.75,-1165.28 1927.96,-2504.36 1029.22,-5492.36 -1395.76,-6641.73 -650.68,-308.41 -1629.4,-199.28 -2357.04,-71.38 -298.71,52.51 -595.82,0.01 -810.39,-214.34 C 11606,4121.13 9135.52,4462.46 7457.09,6167.45 7251.87,6375.92 6967.53,6430.4 6677.83,6389.77 5765.94,6261.88 4752.09,6279.1 4078.02,6627.5 734.51,8355.61 1373.27,13425.58 5022.2,14253.45 c 230.41,52.28 389.36,251.33 389.36,487.59 z"
   id="path6166" />
  <line
   class="fil0"
   x1="5411.5601"
   y1="18612.301"
   x2="15717.09"
   y2="18612.301"
   id="line6168" />
  <path
   class="fil1"
   d="m 1948.76,10924.66 c 243.94,1530.4 1305.28,2927.63 3073.44,3328.79 230.41,52.28 389.36,251.33 389.36,487.59 v 3871.26 h 724.97 v -3897.81 c 0,-236.26 -158.95,-435.31 -389.36,-487.59 -3648.93,-827.87 -4287.69,-5897.84 -944.18,-7625.95 293.53,-151.71 651.49,-240.63 1037.4,-282.11 -652.92,-16.73 -1290.79,64.92 -1762.37,308.66 -1246.19,644.1 -1939.17,1752.46 -2129.26,2932.38 0,0 -47.6677,506.179 -45.7191,759.945 1.5525,202.181 45.7191,604.835 45.7191,604.835 z"
   id="path6170"
   style="fill:#cbcbcb;fill-opacity:1"
   sodipodi:nodetypes="cssccscscscac" />
  <path
   class="fil2"
   d="m 5411.56,18612.3 c 0,535.57 0,1071.13 0,1606.7 0,275.39 224.61,500 500,500 3101.84,0 6203.69,0 9305.53,0 56.16,0 110.21,-9.34 160.68,-26.55 -2913.75,0 -5827.5,0 -8741.24,0 -275.39,0 -500,-224.61 -500,-500 0,-526.72 0,-1053.43 0,-1580.15 z"
   id="path6172"
   style="fill:#c03f3f;fill-opacity:1" />
  <path
   class="fil3"
   d="m 6126.53,18612.3 c 0,526.72 0,1053.43 0,1580.15 0,275.39 224.61,500 500,500 2913.74,0 5827.49,0 8741.24,0 196.98,-67.17 339.32,-254.22 339.32,-473.45 0,-535.57 0,-1071.13 0,-1606.7 z"
   id="path6174" />
  <path
   class="fil1"
   d="m 7392.8,6363.22 c 289.7,40.63 574.04,-13.85 779.26,-222.32 745.09,-756.88 1646.26,-1245.03 2599.55,-1372.62 -1216.73,-73.67 -2392.69,452.59 -3324.52,1399.17 -75.35,76.55 -161.38,132.33 -254.42,170.27 67.14,7.69 133.9,16.21 200.13,25.5 z"
   id="path6176"
   style="fill:#cbcbcb;fill-opacity:1" />
  <path
   class="fil0"
   d="m 6601.82,6379.48 c -501.56,704.31 -863.24,1462.43 -958.69,2322.91 -42.88,386.45 470.76,435.61 525.41,59.11 138.57,-954.68 543.01,-1741.99 1134.28,-2411.66"
   id="path6178" />
  <path
   class="fil0"
   d="m 14602.27,6377.22 c 501.56,704.31 863.24,1462.43 958.69,2322.91 42.88,386.45 -470.76,435.61 -525.41,59.11 -138.57,-954.68 -543.01,-1741.99 -1134.28,-2411.66"
   id="path6180" />
  <path
   class="fil0"
   d="m 6873.5,18612.3 v -1845.27 c 0,-372.07 529.17,-397.13 529.17,0 v 1845.27"
   id="path6182" />
  <path
   class="fil0"
   d="m 8599.9,18612.3 v -1845.27 c 0,-372.07 529.17,-397.13 529.17,0 v 1845.27"
   id="path6184" />
  <path
   class="fil0"
   d="m 10306.46,18612.3 v -1845.27 c 0,-372.07 529.17,-397.13 529.17,0 v 1845.27"
   id="path6186" />
  <path
   class="fil0"
   d="m 12019.64,18612.3 v -1845.27 c 0,-372.07 529.17,-397.13 529.17,0 v 1845.27"
   id="path6188" />
  <path
   class="fil0"
   d="m 13752.67,18612.3 v -1845.27 c 0,-372.07 529.17,-397.13 529.17,0 v 1845.27"
   id="path6190" />
  <path
   class="fil4"
   d="m 12009.64,16767.03 c 0,-372.07 529.17,-397.13 529.17,0 v 1845.27 h 1203.86 v -1845.27 c 0,-372.07 529.17,-397.13 529.17,0 v 1845.27 h 1435.25 c 0,-1280.41 0,-2560.83 0,-3841.24 0,-232.69 153.61,-429.13 379.44,-485.24 801.59,-199.14 1689.35,-571.14 2146.75,-1165.28 1927.96,-2504.36 1029.22,-5492.36 -1395.76,-6641.73 -615.87,-291.91 -1525.63,-209.76 -2238.21,-91.68 497.9,701.51 856.65,1456.55 951.65,2313 42.88,386.45 -470.76,435.61 -525.41,59.11 -138.57,-954.68 -543.01,-1741.99 -1134.28,-2411.66 -80.06,-37.04 -154.6,-87.97 -221.18,-154.49 -922.59,-921.65 -1923.62,-1365.79 -2898.48,-1424.81 -953.29,127.59 -1854.46,615.74 -2599.55,1372.62 -205.22,208.47 -489.56,262.95 -779.26,222.32 -33.2,-4.66 -66.53,-9.12 -99.98,-13.38 -591.27,669.67 -995.71,1456.98 -1134.28,2411.66 -54.65,376.5 -568.29,327.34 -525.41,-59.11 95.45,-860.48 457.13,-1618.6 958.69,-2322.91 -250.12,-32.65 -506.92,-54.12 -761.43,-60.64 -385.91,41.48 -743.87,130.4 -1037.4,282.11 -3343.51,1728.11 -2704.75,6798.08 944.18,7625.95 230.41,52.28 389.36,251.33 389.36,487.59 0,1299.27 0,2598.54 0,3897.81 h 736.97 v -1845.27 c 0,-372.07 529.17,-397.13 529.17,0 V 18612.3 H 8589.9 v -1845.27 c 0,-372.07 529.17,-397.13 529.17,0 v 1845.27 h 1177.39 v -1845.27 c 0,-372.07 529.17,-397.13 529.17,0 v 1845.27 h 1184.01 z"
   id="path6192" />
  <path
   class="fil1"
   d="m 6158.54,8761.5 c 138.57,-954.68 543.01,-1741.99 1134.28,-2411.66 -33.28,-4.24 -66.67,-8.28 -100.15,-12.12 -160.34,65.39 -341.52,77.76 -524.84,52.05 -25.26,-3.54 -50.6,-6.97 -76.01,-10.29 -501.56,704.31 -863.24,1462.43 -958.69,2322.91 -42.88,386.45 470.76,435.61 525.41,59.11 z"
   id="path6194"
   style="fill:#cbcbcb;fill-opacity:1" />
  <path
   class="fil1"
   d="m 13891.27,6347.58 c 591.27,669.67 995.71,1456.98 1134.28,2411.66 54.65,376.5 568.29,327.34 525.41,-59.11 -95,-856.45 -453.75,-1611.49 -951.65,-2313 -40.27,6.67 -79.91,13.46 -118.83,20.3 -206.02,36.22 -411.27,22.48 -589.21,-59.85 z"
   id="path6196"
   style="fill:#cbcbcb;fill-opacity:1" />
  <path
   class="fil1"
   d="m 14271.84,16767.03 c 0,-397.13 -529.17,-372.07 -529.17,0 v 1845.27 h 529.17 z"
   id="path6198"
   style="fill:#cbcbcb;fill-opacity:1" />
  <path
   class="fil1"
   d="m 12538.81,18612.3 v -1845.27 c 0,-397.13 -529.17,-372.07 -529.17,0 v 1845.27 z"
   id="path6200"
   style="fill:#cbcbcb;fill-opacity:1" />
  <path
   class="fil1"
   d="m 10825.63,18612.3 v -1845.27 c 0,-397.13 -529.17,-372.07 -529.17,0 v 1845.27 z"
   id="path6202"
   style="fill:#cbcbcb;fill-opacity:1" />
  <path
   class="fil1"
   d="m 9119.07,18612.3 v -1845.27 c 0,-397.13 -529.17,-372.07 -529.17,0 v 1845.27 z"
   id="path6204"
   style="fill:#cbcbcb;fill-opacity:1" />
  <path
   class="fil1"
   d="m 7392.67,18612.3 v -1845.27 c 0,-397.13 -529.17,-372.07 -529.17,0 v 1845.27 z"
   id="path6206"
   style="fill:#cbcbcb;fill-opacity:1" />
 </g></g></g></svg>
